<svg width="24.000000" height="24.000000" viewBox="0 0 24 24" fill="none" xmlns="http://www.w3.org/2000/svg" xmlns:xlink="http://www.w3.org/1999/xlink">
	<defs>
		<clipPath id="clip1_35">
			<rect id="icon/github" rx="0.000000" width="23.000000" height="23.000000" transform="translate(0.500000 0.500000)" fill="white" fill-opacity="0"/>
		</clipPath>
	</defs>
	<rect id="icon/github" rx="0.000000" width="23.000000" height="23.000000" transform="translate(0.500000 0.500000)" fill="#FFFFFF" fill-opacity="0"/>
	<g clip-path="url(#clip1_35)">
		<path id="Vector" d="M3 16L9 19C4.7 20.4 4.7 16.5 3 16ZM15 21L15 17.5C15 16.5 15.1 16.1 14.5 15.5C17.29 15.2 20 14.1 20 9.5C19.99 8.3 19.53 7.15 18.7 6.3C19.09 5.26 19.05 4.11 18.6 3.1C18.6 3.1 17.5 2.8 15.1 4.4C13.06 3.87 10.93 3.87 8.89 4.4C6.5 2.8 5.39 3.1 5.39 3.1C4.94 4.11 4.9 5.26 5.29 6.3C4.46 7.15 4 8.3 4 9.5C4 14.1 6.7 15.2 9.5 15.5C8.89 16.1 8.89 16.7 9 17.5L9 21" stroke="#4B4B4B" stroke-opacity="1.000000" stroke-width="1.250000" stroke-linejoin="round" stroke-linecap="round"/>
	</g>
</svg>
